<?xml version="1.0" encoding="utf-8"?>
<!DOCTYPE svg PUBLIC "-//W3C//DTD SVG 20010904//EN" "http://www.w3.org/TR/2001/REC-SVG-20010904/DTD/svg10.dtd">
<svg version="1.0" xmlns="http://www.w3.org/2000/svg" width="872px" height="872px" viewBox="0 0 872 872" preserveAspectRatio="xMidYMid meet">
 <g fill="#ffffff">
  <path d="M168.6 700.5 c-2.6 -4 -2.1 -8.8 1.4 -11.8 2.6 -2.3 3 -3.4 3 -7.7 0 -4.8 -0.1 -5 -2.9 -5 -3.2 0 -4.1 -1.7 -4.1 -8.6 0 -5.5 1.9 -9.4 4.8 -9.4 2 0 2.2 -0.5 2.2 -5 0 -4.7 -0.2 -5 -2.5 -5 -2.2 0 -2.5 -0.4 -2.5 -4 0 -2.4 0.5 -4 1.2 -4 0.6 0 1.9 -0.7 2.8 -1.5 3.1 -2.8 15 -5.6 25 -5.8 8.2 -0.2 10.1 0.1 13.8 2 2.3 1.3 5.3 2.3 6.5 2.3 1.3 0 3.6 1.4 5.3 3.1 2.8 2.9 2.9 3.3 2.9 12.9 0 8.2 -0.3 10.1 -1.9 11.9 -1.7 1.9 -1.7 2.1 -0.3 2.1 1 0 1.7 0.8 1.7 2 0 1.1 0.6 2 1.4 2 1.6 0 2.6 4.3 2.6 11.6 0 5.4 1.1 6.9 2.6 3.7 0.4 -1 1 -10 1.2 -20.1 l0.4 -18.2 -3.2 -3.6 c-2.5 -2.9 -3 -4.3 -2.8 -7.2 l0.3 -3.7 15.2 -0.3 c13.3 -0.2 15.5 0 17.3 1.5 2.4 2.1 2.7 8.8 0.5 11.3 -1.2 1.4 -1.3 2.3 -0.5 4.6 0.6 1.5 1 4.2 1 5.9 -0.4 7.2 0 8.2 1.6 3.5 0.8 -2.5 1.9 -5.4 2.4 -6.5 2.8 -6.4 3 -8.5 1 -10.3 -1.4 -1.1 -2 -2.9 -2 -5.9 l0 -4.3 30.1 0 c34.1 0 32.8 -0.3 32.9 7.8 0 3.6 -0.4 4.5 -2 4.9 -1.9 0.5 -2 1.4 -2 21.3 0 11.5 0.4 21 0.8 21.2 2.4 1 6.2 7.8 6.2 11.1 l0 3.7 -30.1 0 c-27.6 0 -30.3 -0.2 -31.5 -1.7 -1.3 -1.7 -1.3 -1.7 -1.4 0 0 1.6 -1.7 1.7 -21 1.7 l-21 0 -0.6 -2.5 c-0.7 -2.7 -1.8 -3.2 -3 -1.4 -0.4 0.8 -2.5 0.9 -6 0.5 -5 -0.6 -5.4 -0.4 -5.4 1.4 0 1.9 -0.6 2 -19.9 2 l-19.9 0 -1.6 -2.5z m15.4 -33 c0 -24.3 0 -24.6 -2 -23.5 -1.9 1 -2 2.1 -2 24.5 0 22.8 0.1 23.5 2 23.5 1.9 0 2 -0.7 2 -24.5z m98 -1 l0 -25.5 -2.5 0 c-2.1 0 -2.5 0.5 -2.5 3 0 1.7 0.5 3 1 3 0.6 0 1 4.3 1 11 0 9.1 -0.3 11 -1.5 11 -1 0 -1.5 1 -1.5 3 0 2 0.5 3 1.5 3 1.2 0 1.5 1.6 1.5 8.5 0 6.9 0.3 8.5 1.5 8.5 1.3 0 1.5 -3.5 1.5 -25.5z m30 0.6 c0 -19 0.3 -25.1 1.3 -25.4 0.6 -0.3 -0.3 -0.6 -2 -0.6 l-3.3 -0.1 0 24.9 0 25 -2.2 0.4 c-1.3 0.2 -0.4 0.5 2 0.6 l4.2 0.1 0 -24.9z m-11 2.1 c0 -24.1 -0.3 -25.5 -5.2 -22.1 l-2.8 2 0 19 c0 11.9 0.4 18.9 1 18.9 0.6 0 1 0.9 1 2 0 1.6 0.7 2 3 2 l3 0 0 -21.8z m-83.5 9.1 c-0.5 -1.8 -1.3 -3.3 -1.7 -3.3 -0.5 0 -0.8 -0.7 -0.8 -1.5 0 -0.8 -0.6 -1.5 -1.2 -1.5 -0.9 0 -1.3 2 -1.3 6.7 0 3.8 -0.4 7.7 -0.9 8.8 -0.4 1.1 0.9 0.2 3 -2 3.6 -3.7 3.8 -4.2 2.9 -7.2z m-14.4 4.4 c2.9 -3.5 2.4 -5.7 -1.2 -5.7 -2.2 0 -3.2 -0.5 -3.6 -1.9 -0.5 -1.8 -0.6 -1.8 -2.4 -0.3 -1.4 1.2 -1.9 3 -1.9 6.8 l0 5.2 3.7 -1 c2 -0.5 4.4 -2 5.4 -3.1z m55.5 0.1 c-1.5 -1 -1.9 -0.3 -1 2.4 0.7 2.2 0.7 2.2 1.4 0.3 0.4 -1.1 0.3 -2.3 -0.4 -2.7z m-16.6 -15.8 c0 -1.1 -0.4 -2 -1 -2 -0.5 0 -1 0.9 -1 2 0 1.1 0.5 2 1 2 0.6 0 1 -0.9 1 -2z m-42.8 -6.6 c-0.3 -2.6 0 -3.9 1.4 -4.8 1.7 -1.3 1.6 -1.5 -1.2 -3.9 -5.3 -4.7 -6.2 -3.2 -4.8 7.7 0.6 3.9 1 4.6 2.8 4.6 1.9 0 2.1 -0.4 1.8 -3.6z m14.6 -5.1 c1.5 -3.3 1.6 -5.3 0.2 -5.3 -0.5 0 -1 -1.1 -1 -2.5 0 -1.4 -0.4 -2.5 -0.9 -2.5 -0.5 0 -1.1 3.1 -1.3 6.9 -0.3 7.2 0.7 8.3 3 3.4z m34.1 0.5 c0 -0.7 -0.4 -2.2 -0.9 -3.3 -0.7 -1.7 -0.9 -1.5 -0.9 1.3 -0.1 1.7 0.4 3.2 0.9 3.2 0.6 0 1 -0.6 0.9 -1.2z m-2.9 -12.3 c0 -2 -0.5 -2.5 -2.5 -2.5 -2 0 -2.5 0.5 -2.5 2.5 0 2 0.5 2.5 2.5 2.5 2 0 2.5 -0.5 2.5 -2.5z"/>
 </g>
 <g fill="#f2f2f2">
  <path d="M122 621 l0 -119 30.9 0 30.9 0 -0.1 11.3 c-0.2 13.5 1 19.1 7 31.6 3.7 7.7 5.9 10.8 12.2 17.2 6.3 6.2 9.5 8.5 17.2 12.2 20.6 10 39.3 10.1 59.4 0.2 24.6 -12 39.4 -37.8 37 -64.7 l-0.6 -7.8 31 0 31.1 0 0 36.6 0 36.6 3.3 -2.2 c1.7 -1.2 6.1 -3.5 9.7 -5.2 8.4 -4 22.2 -5 31.6 -2.3 30.4 8.7 44.4 42.4 28.9 70.1 -6.5 11.6 -20.7 21.5 -35 24.4 -11.4 2.3 -25.5 -0.6 -34.4 -7 l-4.1 -3 0 45 0 45 -128 0 -128 0 0 -119z m245 55.5 l0 -52.5 3.4 0 c3.1 0 3.9 0.7 8.6 7 6.6 8.9 11.9 13.5 18.7 16 6.8 2.6 12.8 2.5 20.5 -0.1 18.9 -6.4 31.4 -25.5 27.1 -41.9 -4.1 -16.2 -19.7 -29.3 -34.8 -29.4 -11.9 -0.1 -22.2 5.9 -31.4 18.2 -4.8 6.4 -5.8 7.2 -8.8 7.2 l-3.3 0 0 -43.5 0 -43.5 -19.4 0 -19.3 0 -0.6 9.8 c-1.5 26.4 -17.5 49.7 -42.2 61.7 -12.6 6.1 -22.1 7.9 -39.4 7.2 -10.3 -0.3 -15.3 -1 -20.6 -2.7 -30.5 -9.7 -51.1 -35.6 -53.2 -66.7 l-0.6 -9.3 -18.9 0 -18.8 0 0 107.5 0 107.5 116.5 0 116.5 0 0 -52.5z"/>
  <path d="M185.3 702.3 c-9.6 -0.3 -13.3 -0.7 -13.3 -1.6 0 -0.9 3.7 -1.2 14.2 -1.1 l14.3 0 -12.5 -0.3 c-18.6 -0.5 -17.6 -2.3 1.3 -2.3 8.6 0 15.7 -0.4 15.7 -0.9 0 -1.4 -4 -2.1 -13.2 -2.1 l-8.8 0 0 -25 c0 -16 -0.4 -25 -1 -25 -0.6 0 -1 8.8 -1 24.5 l0 24.5 -2.6 1 c-4.7 1.8 -5.8 1.3 -3.5 -1.6 1.8 -2.3 2.1 -4.1 2.1 -12 l0 -9.4 -3.1 0 c-1.7 0 -2.8 -0.4 -2.4 -1 0.3 -0.5 1.7 -1 3.1 -1 1.3 0 2.4 -0.4 2.4 -1 0 -0.5 -1.4 -1 -3.1 -1 -2.4 0 -3 -0.3 -2.5 -1.6 0.3 -0.9 0.6 -1.8 0.6 -2 0 -0.2 1.1 -0.4 2.5 -0.4 2.5 0 2.5 -0.1 2.3 -7.7 l-0.2 -7.8 -0.3 7.1 c-0.4 6.7 -0.5 7.1 -2.6 6.7 -2.8 -0.5 -5.2 4.3 -4.2 8.7 0.6 2.6 1.1 3 3.3 2.8 l2.7 -0.3 0.3 8.2 c0.3 7.8 0.2 8.3 -2.5 10.7 -1.5 1.4 -2.8 2.4 -3 2.2 -0.9 -0.8 1.1 -6.6 2.3 -6.6 1 0 1.4 -1.5 1.4 -5.5 0 -4.2 -0.3 -5.5 -1.5 -5.5 -0.8 0 -1.5 -0.4 -1.5 -1 0 -0.5 -0.6 -1 -1.4 -1 -0.9 0 -1.5 -1.8 -2 -5.2 -0.9 -8.1 -0.8 -8.8 1.5 -8.8 5.1 0 6.9 -7.6 2.4 -10 -1.9 -1 -2.5 -2.1 -2.5 -4.6 0 -5.2 0.9 -6.4 4.5 -6.4 2.5 0 3.5 -0.5 4 -2 0.8 -2.6 7.6 -4.4 13.7 -3.6 3.4 0.5 4.8 0.3 4.8 -0.5 0 -1.4 10 -0.5 10.9 0.9 0.3 0.5 2.8 1.2 5.5 1.6 3.7 0.6 5.5 1.5 7.5 3.9 4 4.7 4.8 6.8 5.5 14.5 0.6 5.9 0.4 7.5 -0.8 8.8 -2.2 2.1 -2 2.9 1.1 5.9 2.8 2.5 3 3.5 3.3 16.4 0 2 0.2 2.1 1.5 1.1 0.8 -0.7 1.5 -1.9 1.5 -2.6 0 -0.8 0.5 -1.4 1 -1.4 1.1 0 1.4 -31.6 0.4 -36.9 -0.4 -1.7 -1.3 -3.1 -2 -3.1 -0.8 0 -1.4 -0.9 -1.4 -2 0 -1.8 0.5 -1.5 3.1 1.4 l3.1 3.5 -0.4 21.3 c-0.2 11.7 -0.7 22.2 -1.1 23.3 -0.4 1.1 -0.1 0.7 0.7 -1 1.2 -2.3 1.5 -7.6 1.6 -24.1 0 -20.3 -0.1 -21.2 -2.2 -23.9 l-2.2 -2.8 3.4 0.6 c3.8 0.8 5 2.1 5 5.5 0 1.5 0.6 2.2 2 2.2 1.5 0 2 -0.7 2 -2.9 0 -3.5 2 -5.3 5.6 -4.9 l2.8 0.3 -2.6 2.9 -2.5 2.9 5.6 17.1 c5.3 16.5 7.2 20.5 7.9 16.8 0.2 -0.9 1.2 -3.6 2.3 -5.9 2.2 -4.8 2.2 -5.3 1 -5.3 -0.5 0 -1.1 0.9 -1.4 2 -0.3 1.3 -1.4 2 -3 2 -2.8 0 -4.3 -2.7 -3.2 -6 0.4 -1.3 0.2 -2 -0.6 -2 -0.7 0 -1 -0.3 -0.7 -0.6 0.4 -0.3 -0.7 -4.4 -2.3 -9.2 -1.6 -4.7 -2.9 -8.7 -2.9 -8.8 0 -0.2 1.4 -1.2 3 -2.4 3.7 -2.7 3.9 -1.9 0.3 1.5 -3.3 3 -2.2 3.3 1.8 0.4 3.3 -2.3 3.7 -4.3 1.2 -5.8 -1.6 -0.9 -1.6 -1 0.5 -1.1 1.8 0 2.2 0.5 2.2 3.3 0 1.7 -0.4 3.8 -0.9 4.6 -1.3 2 2.8 13.1 4.6 12.4 0.7 -0.3 1.3 -1.4 1.3 -2.5 0 -1.1 0.7 -2.7 1.6 -3.5 1.1 -1.1 1.4 -2.5 0.9 -4.2 -0.4 -1.4 -0.9 -4.3 -1.2 -6.5 -0.5 -3.8 -0.5 -3.8 1.3 -1.9 4.6 4.7 4.7 4.9 2.9 10.5 -0.9 2.9 -2 6.2 -2.4 7.3 -0.5 1.1 -1.4 3.3 -2 4.8 -1.4 3.5 -1.5 5.5 -0.1 4.1 0.5 -0.5 2.5 -5.6 4.3 -11.2 3.2 -9.8 3.2 -10.2 1.5 -12.4 -2.3 -3.1 -2.2 -3.8 0.5 -3.8 3.1 0 4.7 1.8 4.7 5.2 0 1.5 0.5 2.8 1 2.8 1.4 0 1.2 6.4 -0.2 7.8 -0.9 0.9 -0.9 1.2 0 1.2 0.7 0 1.2 1.4 1.2 3.5 0 2.4 -0.5 3.5 -1.5 3.5 -1.7 0 -1.8 -0.6 -1.5 -7.4 0.1 -3.3 -0.2 -4.6 -0.9 -4.2 -1 0.6 -8.4 22.6 -7.9 23.2 0.2 0.1 1.6 0 3.2 -0.3 2.6 -0.5 2.8 -0.9 2.3 -3.9 -0.5 -2.9 -0.3 -3.4 1.4 -3.4 1 0 1.9 -0.7 1.9 -1.5 0 -0.8 0.7 -1.5 1.5 -1.5 1.2 0 1.4 2.4 1.3 14.8 -0.2 16 -0.5 17.1 -6 17.2 -1.6 0 -2.8 0.3 -2.8 0.8 0.1 1.3 2.7 4.2 3.9 4.2 0.6 0 1.1 0.7 1.1 1.5 0 1 -1.1 1.5 -3.5 1.5 -1.9 0 -3.5 -0.4 -3.5 -1 0 -0.5 -2.1 -1.1 -4.7 -1.1 -2.7 -0.1 -3.6 -0.4 -2.2 -0.6 1.9 -0.3 2.9 -1.3 3.7 -3.9 0.5 -1.8 0.7 -3.4 0.2 -3.4 -0.4 0 -1.1 1.1 -1.4 2.5 -0.5 1.9 -1.3 2.5 -3.4 2.4 -2.4 0 -2.5 -0.1 -0.6 -0.9 2.1 -0.8 7.2 -12.6 6 -13.8 -1 -1 -2.3 1 -4.1 6.6 -1.3 4 -2.1 5.2 -3.7 5.2 -1.8 0 -2 0.4 -1.4 4 l0.6 4 -4.5 0 c-3.3 0 -4.5 -0.4 -4.5 -1.5 0 -0.8 0.5 -1.5 1.1 -1.5 0.6 0 1.7 -0.6 2.4 -1.4 1.2 -1.2 0.8 -1.3 -2.8 -1 -2.3 0.2 -3.4 0.1 -2.4 -0.2 3.1 -1 1.8 -2.4 -2.3 -2.4 -2.2 0 -4 -0.4 -4 -1 0 -0.5 -0.7 -1 -1.5 -1 -0.8 0 -1.5 0.5 -1.5 1.1 0 0.8 -1.5 1 -4.5 0.7 -2.5 -0.3 -4.8 -0.2 -5.1 0.3 -0.9 1.5 0.6 4.9 2.2 4.9 0.8 0 1.4 0.5 1.4 1 0 0.6 -1.6 1 -3.5 1 -3.1 0 -3.5 -0.3 -3.5 -2.5 0 -3 -2.6 -3.4 -3.5 -0.6 -0.3 1 -1.6 2.2 -2.8 2.5 -3.2 1 -17.4 1.3 -32.4 0.9z m21.7 -3.3 c0 -0.5 -0.7 -1 -1.5 -1 -0.8 0 -1.5 0.5 -1.5 1 0 0.6 0.7 1 1.5 1 0.8 0 1.5 -0.4 1.5 -1z m15.8 -7.9 l2.3 -3.6 -3.9 4.2 c-2.2 2.3 -4.3 3.9 -4.7 3.5 -0.5 -0.4 -0.5 -0.1 -0.1 0.5 1 1.8 3.7 -0.1 6.4 -4.6z m-6.7 2.6 c3.6 -2.4 6.8 -7.1 5.6 -8.3 -0.4 -0.5 -2.1 0.8 -3.8 2.9 -1.6 2 -4.5 4.1 -6.4 4.8 -1.9 0.7 -3.2 1.6 -2.9 2.1 0.9 1.5 4 0.8 7.5 -1.5z m57.8 -2.3 c1.6 -2 2.1 -4 2 -8.3 -0.1 -5 -0.2 -5.3 -1 -2.6 -0.5 1.7 -0.8 4.5 -0.7 6.4 0.2 2.4 -0.4 3.8 -2.1 5.2 -1.3 1.1 -1.9 1.9 -1.3 1.9 0.6 0 2 -1.2 3.1 -2.6z m-68.4 -3.2 c2.6 -1.9 4.8 -6.9 3.4 -7.8 -0.5 -0.3 -0.9 0.3 -0.9 1.3 -0.1 3 -3.4 6 -8.6 7.7 l-4.9 1.6 4.3 -0.5 c2.4 -0.3 5.4 -1.3 6.7 -2.3z m37.7 -6.9 c-0.3 -5.8 -0.8 -9 -1.4 -8.6 -1.1 0.6 -0.5 13.5 0.7 16.6 1.2 2.8 1.2 1.8 0.7 -8z m3.2 0.5 c-0.3 -4.6 -0.8 -8.5 -1 -8.7 -0.2 -0.2 -0.4 3.2 -0.4 7.6 0 7 0.4 9.3 1.7 9.3 0.1 0 0 -3.7 -0.3 -8.2z m7 2.1 c-0.9 -3 -2.2 -6.7 -3 -8.4 l-1.5 -3 0.6 3 c0.8 3.9 4.7 14.7 5.2 14.2 0.2 -0.2 -0.4 -2.8 -1.3 -5.8z m-37.4 2.2 c0 -1 0.2 -3.1 0.5 -4.7 0.4 -2 -0.1 -4.1 -1.7 -6.6 l-2.3 -3.7 0 8.4 c0 7.4 0.2 8.5 1.8 8.5 1 0 1.7 -0.8 1.7 -1.9z m9.6 -7.6 c-0.4 -2.5 -1.2 -4.3 -1.7 -4 -0.5 0.4 -0.6 1.2 -0.2 1.8 0.4 0.6 0.7 3.4 0.6 6.2 -0.1 4.1 0.1 4.6 0.9 2.8 0.6 -1.2 0.8 -4.1 0.4 -6.8z m-25.5 6.3 c2.9 -0.8 3.9 -1.6 3.9 -3.2 0 -2.8 -3.3 -5.6 -6.5 -5.6 -2.3 0 -2.5 0.3 -2.5 5 0 2.8 0.3 5 0.6 5 0.4 0 2.4 -0.5 4.5 -1.2z m-7.4 -15.6 c2.3 -0.2 5.8 0.1 7.8 0.7 2.9 0.8 3.5 0.7 3.5 -0.6 0 -1.1 -0.7 -1.4 -2.5 -1.1 -1.3 0.3 -2.6 0.2 -2.7 -0.3 -0.3 -0.8 -3.5 -1.2 -8.5 -1 l-3.3 0.1 0.2 8.8 0.2 8.7 0.5 -7.5 0.6 -7.5 4.2 -0.3z m0 3.1 c1.5 -1.2 1.5 -1.3 -0.5 -1.3 -2.1 0 -2.2 0.4 -2 6.8 0.2 6.6 0.2 6.6 0.5 1.2 0.3 -3.6 0.9 -5.9 2 -6.7z m74.5 3.8 c-0.4 -1.1 -0.7 -1 -1.3 0.5 -1.2 2.9 -1 3.6 0.5 2.2 0.7 -0.7 1.1 -1.9 0.8 -2.7z m-52.1 -10 c-1.8 -1.6 -1.8 -1.8 -0.3 -2.8 2 -1.2 1.2 -2.6 -1 -1.8 -1.9 0.7 -1.7 5.3 0.2 6.5 2.3 1.4 3.2 -0.1 1.1 -1.9z m32.7 -1.3 c-0.6 -1.8 -2.8 -2.1 -2.8 -0.4 0 0.9 0.7 1.6 1.6 1.6 0.9 0 1.4 -0.5 1.2 -1.2z m-27.7 -2.4 c2.1 -2.2 2.4 -3.5 2.4 -9.4 0 -6.2 -0.3 -7.2 -2.9 -9.9 -1.8 -1.9 -4 -3.1 -5.6 -3.1 -1.4 0 -3.5 -0.7 -4.6 -1.5 -2.9 -2 -6.9 -2.7 -13.6 -2.6 -6.5 0.2 -18.3 3.3 -20.8 5.6 -0.9 0.8 -2.2 1.5 -2.8 1.5 -0.7 0 -1.2 0.4 -1.2 1 0 0.9 3 0.2 4 -1 0.7 -0.7 7.5 -3.6 12.3 -5 5.6 -1.7 16.4 -0.9 21.2 1.6 2.2 1.2 4.6 1.9 5.3 1.6 1.7 -0.5 4.4 1.7 3.5 3.1 -0.3 0.6 -0.1 0.7 0.6 0.3 1.6 -1 2.6 2.1 1.1 3.8 -0.6 0.8 -1 3 -0.8 4.8 0.2 2.1 -0.3 3.7 -1.2 4.5 -1.1 0.9 -1.2 1.5 -0.3 2.3 0.8 0.9 1.3 0.6 1.9 -1.1 1.1 -3.3 1.1 -3.5 1.3 -7.5 0.1 -2.2 0.5 -3.3 1.2 -2.9 0.6 0.5 0.8 2.3 0.4 4.9 -0.3 2.2 -0.6 4.9 -0.6 5.9 0 0.9 -0.5 1.5 -1 1.1 -0.5 -0.3 -0.8 -0.1 -0.7 0.5 0.2 0.5 -0.6 1.7 -1.7 2.5 -1.1 0.8 -1.5 1.6 -0.9 1.6 0.6 0 2.1 -1.2 3.5 -2.6z m-32.4 -14.6 c-0.2 -2.9 -0.3 -0.6 -0.3 5.2 0 5.8 0.1 8.1 0.3 5.3 0.2 -2.9 0.2 -7.7 0 -10.5z m3.5 8 c-0.5 -10.8 -1 -11.5 -1.1 -1.5 0 4.8 0.3 8.7 0.7 8.7 0.4 0 0.6 -3.3 0.4 -7.2z m51.8 0.3 c0 -3.3 -0.4 -6.3 -1 -6.6 -0.6 -0.4 -1 1.8 -1 5.9 0 3.7 0.4 6.6 1 6.6 0.6 0 1 -2.6 1 -5.9z m-35.5 -1.1 c0.5 -2.2 0.3 -2.1 -1.5 0.8 -1.2 1.7 -2.6 3.2 -3.2 3.2 -0.5 0 -0.6 0.5 -0.2 1.1 0.9 1.5 4 -1.8 4.9 -5.1z m6.5 -4.2 c0 -1 -0.4 -1.8 -1 -1.8 -0.5 0 -1 1.1 -1 2.4 0 1.3 -0.2 3.9 -0.5 5.7 -0.6 3.3 -0.6 3.3 0.9 -0.6 0.9 -2.2 1.6 -4.8 1.6 -5.7z m-11.6 5.2 c1.1 -1.1 -2.2 -4.5 -5.1 -5.4 -2.1 -0.7 -2.3 -0.4 -2.3 3.3 0 4 0 4 3.3 3.4 1.7 -0.3 3.6 -0.9 4.1 -1.3z m5.6 -5.8 c0 -2.3 -2.6 -5.9 -3.5 -5 -0.4 0.4 -0.3 1.3 0.1 2 0.5 0.7 0.7 2.1 0.6 3.1 -0.2 1 0.3 1.7 1.2 1.7 0.9 0 1.6 -0.8 1.6 -1.8z m-3.4 -1.4 c0.4 -0.6 0.3 -0.8 -0.3 -0.5 -0.6 0.4 -1.3 0 -1.7 -0.8 -0.3 -0.8 -1.1 -1.5 -1.7 -1.5 -0.7 0 -0.5 0.8 0.6 2 2.1 2.3 2.2 2.4 3.1 0.8z m-1.1 -5.8 c-0.9 -1.5 -7.2 -2.3 -11.2 -1.5 -3.2 0.6 -3.5 0.8 -1.9 1.7 1 0.5 2.6 0.8 3.6 0.5 1 -0.3 3.4 -0.1 5.2 0.3 3.6 0.7 5.2 0.4 4.3 -1z"/>
  <path d="M294 701.5 c0 -0.8 0.7 -1.5 1.5 -1.5 2.1 0 1.9 -2.4 -0.5 -4.5 -1.4 -1.3 -2.8 -1.6 -5.4 -1.1 -5.1 1 -7.6 -0.7 -7.6 -4.9 0 -2.4 0.5 -3.5 1.5 -3.5 0.8 0 1.5 0.7 1.5 1.5 0 0.8 0.5 1.5 1 1.5 0.6 0 1 -8.2 1 -22.5 l0 -22.4 3.3 -1.6 3.2 -1.6 -2.2 2 c-2.3 1.9 -2.3 2.2 -2.1 24.3 l0.3 22.3 0.2 -21.5 0.3 -21.5 2.7 -2.2 c2.7 -2.2 2.7 -2.2 0.8 -4.2 -1.8 -2.1 -1.8 -2.1 0.3 -2.1 1.8 0 2.2 0.6 2.2 3.3 0 2.1 -0.7 3.8 -2 4.7 -1.9 1.4 -2 2.6 -2 20.7 0 12.2 0.4 19.3 1 19.3 0.6 0 1 0.6 1 1.4 0 2.6 2.8 2.5 5.4 -0.3 l2.6 -2.8 -0.2 -19.4 c-0.3 -19 -0.3 -19.4 -2.5 -20.4 -1.7 -0.7 -2.3 -1.8 -2.3 -4.3 l0 -3.4 3.3 3.7 3.2 3.6 0.5 22.2 0.6 22.2 0.2 -22.6 c0.2 -21.3 0.1 -22.6 -1.8 -24.7 -2.7 -2.8 -2.5 -3.2 1 -3.2 1.9 0 3.3 0.7 4 1.9 0.6 1.2 1 11.8 1 27.4 0 28.4 0 28.4 -6.5 27.4 -1.9 -0.3 -3.7 -0.1 -4 0.4 -0.4 0.5 -0.2 0.9 0.3 0.9 0.5 0 1.2 0.9 1.5 1.9 0.3 1.2 1.6 2.1 3.3 2.4 l2.9 0.4 -2.7 0.2 c-1.6 0 -2.8 0.6 -2.8 1.1 0 0.6 -1.6 1 -3.5 1 -2.4 0 -3.5 -0.5 -3.5 -1.5z"/>
  <path d="M324.5 695.5 c-1.6 -2.5 -3.3 -4.5 -3.7 -4.5 -0.5 0 -0.8 -0.9 -0.8 -2 0 -1.3 0.7 -2 2 -2 1.6 0 2 0.7 2 3 0 2.5 0.4 3 2.5 3 2.2 0 2.5 0.4 2.5 3.5 0 1.9 -0.3 3.5 -0.7 3.5 -0.5 0 -2.1 -2.1 -3.8 -4.5z"/>
  <path d="M285.1 697.6 c0.8 -0.8 8.8 -1 9.5 -0.3 0.4 0.4 -1.7 0.7 -4.6 0.7 -2.9 0 -5.1 -0.2 -4.9 -0.4z"/>
  <path d="M316 697.6 c0 -0.8 7.1 -1.2 7.6 -0.4 0.3 0.4 -1.3 0.8 -3.5 0.8 -2.3 0 -4.1 -0.2 -4.1 -0.4z"/>
  <path d="M314 694.1 l-2.5 -0.7 -0.3 -25.8 c-0.2 -23 0 -26.1 1.4 -27.8 1 -1 2.8 -1.8 4.1 -1.8 2.4 0 3.1 1.4 1.3 2.5 -0.6 0.4 -0.8 1.1 -0.4 1.6 0.4 0.6 1.4 0.3 2.5 -0.7 1.8 -1.6 1.9 -1.6 1.9 0.1 0 1.5 0.3 1.6 1.2 0.7 1 -1 1 -1.7 0 -3.2 -1 -1.7 -1 -2 0.3 -2 1.3 0 1.5 1 1.3 5.3 -0.3 4.5 -0.6 5.2 -2.5 5.5 -1.6 0.2 -2.3 -0.2 -2.3 -1.2 0 -0.9 -0.4 -1.6 -1 -1.6 -0.6 0 -1 8.1 -1 22.2 0 18.9 0.2 22.4 1.6 23.9 2.9 3.2 0.3 4.6 -5.6 3z m1.7 -37.8 c-0.1 -6.5 -0.3 -1.4 -0.3 11.2 0 12.7 0.2 18 0.3 11.8 0.2 -6.2 0.2 -16.5 0 -23z"/>
  <path d="M283.3 647.3 c-0.7 -0.3 -1.3 -2 -1.3 -3.9 0 -2.8 0.5 -3.6 2.6 -4.4 4.9 -1.9 5.7 -1.3 3.1 2.3 -1.4 1.7 -2.7 3.9 -2.8 4.8 -0.2 0.9 -1 1.4 -1.6 1.2z"/>
  <path d="M230 635.8 c0 -0.4 1.6 -0.8 3.5 -0.8 1.9 0 3.5 0.2 3.5 0.4 0 0.2 -1.6 0.6 -3.5 0.8 -1.9 0.2 -3.5 0 -3.5 -0.4z"/>
  <path d="M289 636 l-3.5 -0.7 3.8 -0.2 c2 0 3.7 0.4 3.7 0.9 0 0.6 -0.1 0.9 -0.2 0.9 -0.2 -0.1 -1.9 -0.5 -3.8 -0.9z"/>
  <path d="M397 709.3 l0 -30.8 12.8 0 c10.3 0 14 -0.4 19.7 -2.2 10.1 -3.2 19 -8.8 27 -16.8 8 -8.1 12.5 -15.2 16.3 -25.7 2.4 -6.6 2.6 -8.7 2.6 -21.3 0 -12.6 -0.2 -14.7 -2.6 -21.3 -3.8 -10.6 -8.3 -17.7 -16.3 -25.7 -8.1 -8 -15.2 -12.5 -25.7 -16.3 -6.4 -2.2 -8.9 -2.6 -20.5 -2.6 l-13.3 -0.1 0 -22.2 0 -22.3 36.6 0 36.6 0 -2.2 -3.2 c-3.6 -5.5 -6.1 -11.9 -7.7 -19.7 -2 -9.7 -0.7 -18.7 4.4 -29.1 16.3 -33.6 62.2 -36.4 83.1 -5 5.4 8 7.6 17.2 7 29.3 -0.3 7.8 -0.9 10.3 -3.7 16.5 -1.9 3.9 -4 7.7 -4.7 8.3 -0.8 0.6 -1.4 1.5 -1.4 2 0 0.5 19.9 0.9 45 0.9 l45 0 0 119 0 119 -119 0 -119 0 0 -30.7z m226 -88.3 l0 -108 -52.5 0 -52.5 0 0 -3.3 c0 -3 0.8 -3.9 8.2 -9.2 9.2 -6.8 13.8 -12.9 16.4 -21.9 6.2 -21.9 -17.4 -47.5 -40 -43.3 -13.8 2.5 -26 13.8 -30.1 28.2 -3.9 13.4 2.4 27.6 17.6 39.2 4.1 3.1 4.9 4.2 4.9 7 l0 3.3 -43.5 0 -43.5 0 0 10.3 0 10.3 10.8 1.2 c22.5 2.4 39.5 11.7 53.5 29.4 18.6 23.4 20.7 63.3 4.7 89.8 -13.1 21.6 -34.5 34.7 -60.2 36.6 l-8.8 0.7 0 18.8 0 18.9 107.5 0 107.5 0 0 -108z"/>
  <path d="M238.3 561.5 c-17.2 -4.7 -31.3 -19.2 -35.3 -36.4 -2.7 -11.7 0.6 -28.7 7.5 -37.7 1.4 -1.8 2.5 -3.5 2.5 -3.8 0 -0.3 -20.5 -0.6 -45.5 -0.6 l-45.5 0 0 -127.5 0 -127.5 128 0 128 0 0 52 0 52.1 -6.5 -5.5 c-7.5 -6.5 -12.3 -9 -20.2 -11.1 -20.2 -5.3 -42 4.6 -50.8 23 -4.1 8.6 -4.7 21.8 -1.5 30.8 5.6 15.3 17.2 24.8 34.1 27.8 12.4 2.2 27.5 -2.2 37.1 -10.8 8.7 -7.8 7.8 -13.1 7.8 45.1 l0 51.6 -45.5 0.2 -45.5 0.3 3 4.5 c9.9 14.8 10.6 36.1 1.7 50.8 -11.2 18.6 -33.5 28 -53.4 22.7z m25.7 -13.7 c14.7 -7.3 24.7 -24.4 21.9 -37.8 -2.2 -10.7 -7.9 -18.9 -18.4 -26.6 -5.7 -4.2 -6.5 -5.2 -6.5 -8.1 l0 -3.3 53 0 53 0 0 -34 c0 -18.7 -0.1 -34 -0.2 -34 -0.2 0 -2.8 1 -5.8 2.1 -6.9 2.7 -25 3.7 -34.3 2 -9.2 -1.8 -20.2 -7.6 -26.7 -14.1 -10.8 -10.9 -15.6 -24.2 -14.7 -41.5 1.2 -23.5 13.3 -39.6 35.4 -47.1 6.7 -2.3 9.5 -2.7 19.8 -2.7 10.1 0 13.2 0.4 19.3 2.5 l7.2 2.4 0 -34.3 0 -34.3 -116.5 0 -116.5 0 0 116.5 0 116.5 52.5 0 52.5 0 0 3.3 c0 2.8 -0.9 3.9 -7 8.5 -10.8 8.3 -15.9 15.8 -17.9 26.4 -2.9 15.8 9.8 34 27.9 39.9 5.2 1.7 16.2 0.5 22 -2.3z"/>
  <path d="M629 419.8 c-18.4 -7.7 -33.9 -14.3 -34.4 -14.8 -0.4 -0.4 1 -3.1 3.2 -5.9 8.3 -10.5 12.2 -21.6 12.2 -35.1 0 -15.1 -4.9 -27.9 -14.8 -38.2 -20.7 -21.7 -54 -23.2 -76.9 -3.4 -9.5 8.2 -16.9 23.4 -18 36.8 -0.4 4.7 -1 6.8 -1.8 6.4 -20.1 -7.7 -55.6 -23.2 -56 -24.5 -0.3 -0.9 6 -16.7 13.9 -35.1 7.9 -18.4 14.3 -33.6 14.2 -33.6 0 -0.1 -2.8 0.2 -6.1 0.8 -15.9 2.6 -32.5 -3.7 -44.1 -16.6 -9 -10 -13 -21.6 -12.1 -35.9 0.6 -11.6 4.4 -19.4 13.3 -27.5 22.9 -21 56.3 -17.8 74.4 7 l2.7 3.7 16.8 -41.2 c9.2 -22.7 16.8 -41.3 16.9 -41.5 0.3 -0.2 220.8 90.6 221.4 91.3 0.5 0.4 -89.6 219.5 -90.7 220.6 -0.3 0.4 -15.7 -5.6 -34.1 -13.3z m29 -6 c2.2 -5.6 39.1 -95 68.2 -165.2 6.5 -15.8 11.7 -29.1 11.4 -29.4 -0.3 -0.3 -45 -18.9 -99.3 -41.3 -66.6 -27.4 -99 -40.3 -99.5 -39.6 -0.6 1.3 -3.8 8.9 -18.3 44.7 -4.8 11.8 -11.2 27.5 -14.2 34.8 -5.5 13 -5.6 13.2 -8.7 13.2 -3.2 0 -3.2 -0.1 -4.9 -7.2 -1 -4 -2.7 -9.1 -3.7 -11.3 -3.1 -6.3 -11.7 -14.4 -19 -17.9 -5.6 -2.7 -7.6 -3.1 -14.5 -3.1 -9.7 0 -16.2 2.7 -24.3 10 -12.5 11.3 -14.7 22.8 -7.2 38.2 3.6 7.4 11.5 14.9 19.8 19 4.8 2.3 7 2.8 13.7 2.8 7 0 9.2 -0.5 17 -3.8 4.9 -2 10.2 -3.7 11.7 -3.7 2.5 0 2.8 0.3 2.8 3.4 0 2.2 -5.6 16.5 -15.5 39.7 -8.5 20 -15.5 36.9 -15.5 37.5 0 0.7 2.4 2.2 5.3 3.3 2.8 1.1 10 4 15.9 6.4 l10.6 4.5 0.7 -3.6 c0.3 -2 2.6 -7.8 5.1 -12.9 3.4 -7.1 6 -10.8 11.2 -16 12.7 -12.7 25.6 -18.3 44.3 -19.1 22.3 -0.9 37.8 4.7 52 18.8 13.7 13.7 19.6 29.8 18.6 51 -0.6 11.6 -3.6 24.1 -7.3 29.8 -0.9 1.3 -1.3 2.6 -1.1 2.9 1 0.9 40.2 17.1 41.8 17.2 1 0.1 2.2 -1.2 2.9 -3.1z"/>
 </g>
 <g fill="#d1dce6">
  <path d="M205 701.5 c0 -0.8 0.7 -1.5 1.5 -1.5 2.1 0 1.9 -1.7 -0.2 -2.4 -1 -0.3 -0.1 -0.4 2 -0.1 2.2 0.2 3.5 0 3.2 -0.6 -0.4 -0.5 -0.2 -0.9 0.4 -0.9 0.5 0 1.8 -0.3 2.8 -0.6 1.7 -0.5 1.7 -0.5 0.1 0.6 -2.2 1.3 -2.4 3.2 -0.3 2.4 1 -0.4 1.5 0 1.5 1.4 0 2.4 -1.8 3.2 -7.1 3.2 -2.8 0 -3.9 -0.4 -3.9 -1.5z"/>
  <path d="M272 676.8 c0 -4.2 1.4 -8.8 2.6 -8.8 0.8 0 1.4 -0.7 1.4 -1.5 0 -0.8 0.7 -1.5 1.5 -1.5 1.2 0 1.5 1.4 1.5 6.5 0 7.5 -2.1 9.1 -3.8 2.8 l-1 -3.8 -0.1 3.8 c-0.1 2 -0.5 3.7 -1.1 3.7 -0.5 0 -1 -0.6 -1 -1.2z"/>
  <path d="M192.7 675.3 c-1.3 -1.2 -0.7 -2.3 1.3 -2.3 2.7 0 2.6 -1.5 -0.1 -1.7 -2.4 -0.2 -3.5 -1 -2.6 -1.9 0.4 -0.4 3 -0.2 5.9 0.3 3.4 0.7 4.3 1.1 2.6 1.2 -2.9 0.1 -4 2.1 -1.3 2.1 0.8 0 1.5 0.7 1.5 1.5 0 1 -1 1.5 -3.3 1.5 -1.9 0 -3.7 -0.3 -4 -0.7z"/>
  <path d="M198.8 667.3 c-4 -0.6 -3.4 -2.3 0.7 -2.3 2.4 0 3.5 0.5 3.5 1.5 0 0.8 -0.3 1.4 -0.7 1.4 -0.5 -0.1 -2 -0.4 -3.5 -0.6z"/>
 </g>
 <g fill="#b8bec4">
 </g>
 <g fill="#5e8bb2">
  <path d="M172.7 705.3 c-0.4 -0.3 -0.7 -1.5 -0.7 -2.5 0 -1.1 -0.7 -1.8 -2 -1.8 -1.6 0 -2 -0.7 -2 -3.5 0 -4.3 1 -4.4 3.3 -0.5 l1.8 3 18.3 0 c18.9 0 22.7 -0.6 27.9 -4.4 7.2 -5.2 8.9 -18.6 3.2 -24.6 -1.5 -1.6 -3.1 -2.9 -3.4 -2.8 -0.3 0.1 -1.3 -0.2 -2.2 -0.6 -1.3 -0.6 -0.9 -1.4 2.3 -4.5 3.5 -3.5 3.8 -4.3 3.8 -9.2 0 -3 -0.7 -6.6 -1.4 -8.1 -1.5 -2.8 -1.4 -2.8 1.5 -2.8 1.9 0 2.9 0.5 2.9 1.5 0 0.9 0.7 1.8 1.5 2.1 1.1 0.5 1.5 2.4 1.5 8.1 0 7.1 -1 11 -3.4 12.5 -0.8 0.5 -0.7 0.8 0.2 0.8 0.6 0 1.2 0.9 1.2 2 0 1.1 0.5 2 1 2 0.6 0 1 0.7 1 1.5 0 0.9 0.7 1.8 1.5 2.1 1.1 0.5 1.5 2.3 1.5 7.9 0 6.7 -0.2 7.4 -2.6 8.9 -1.8 1.3 -2.4 2.4 -2.2 4.4 l0.3 2.7 13.3 0.3 c7.2 0.1 13.2 -0.1 13.2 -0.6 0 -0.5 -1.6 -3.1 -3.5 -5.8 -3.4 -4.8 -3.5 -5.1 -3.4 -14.4 l0.1 -9.5 2.5 8 c1.3 4.4 3.4 11.3 4.6 15.3 l2.2 7.2 3.6 0 3.7 0 5 -15.2 5 -15.3 0.1 10 c0.1 9.8 0.1 9.9 -3.1 13.2 -2.7 2.7 -2.9 3.3 -1.5 3.9 1 0.3 1.7 1.2 1.7 2 0 1.1 2.6 1.4 13.5 1.4 7.4 0 13.5 -0.3 13.5 -0.7 0 -0.5 -1.8 -3 -4 -5.8 l-4 -5 0 -21.2 0 -21.1 2.7 -2 c2.7 -1.9 2.7 -2.1 1 -3.9 -0.9 -1.1 -1.4 -2.3 -1 -2.6 1.3 -1.4 4.5 -0.6 6.4 1.5 2.2 2.7 2.6 8.8 0.6 8.8 -0.8 0 -2.1 0.8 -3 1.8 -1.4 1.6 -1.7 4.4 -1.7 18.8 0 19.2 0.6 24.4 2.7 24.4 0.8 0 1.1 0.4 0.8 1 -0.3 0.5 0.2 2.1 1.1 3.5 1.6 2.5 1.8 2.5 14.5 2.5 7.1 0 12.9 -0.4 12.9 -0.9 0 -0.4 -1.6 -2.8 -3.5 -5.2 l-3.5 -4.4 0 -21.9 c0 -21.3 0.1 -22 2.2 -24.3 1.9 -2 2 -2.7 1 -4.3 -1.1 -1.8 -0.9 -2 1.4 -2 3.5 0 5.4 2.2 5.4 6.4 0 2.5 -0.6 4 -2 4.8 -1.9 1.2 -2 2.4 -2 19.9 0 10.2 0.3 20.7 0.6 23.3 0.6 3.9 1 4.6 2.9 4.6 2.6 0 3.5 1.7 3.5 6.6 l0 3.4 -30.5 0 -30.6 0 -0.9 -2.2 -0.9 -2.3 0 2.3 -0.1 2.2 -21.2 -0.2 -21.3 -0.3 -0.3 -2.7 c-0.4 -3.3 -1.1 -3.4 -5.4 -0.8 -1.8 1.1 -4.1 2 -5 2 -1 0 -1.8 0.5 -1.8 1 0 1.1 -41.2 1.4 -42.3 0.3z"/>
  <path d="M245.5 692.9 c-1 -2.9 -0.3 -3.1 1.8 -0.3 1.5 2 1.5 2.4 0.3 2.4 -0.8 0 -1.8 -0.9 -2.1 -2.1z"/>
  <path d="M317.7 693.3 c-0.4 -0.3 -0.7 -11.5 -0.7 -24.8 0 -23.9 0 -24.2 2.3 -26.1 2.2 -1.9 2.2 -1.9 0.5 0.2 -1.6 1.8 -1.8 4.6 -1.8 24.9 0 19.9 0.2 23.1 1.7 24.7 1.4 1.5 1.4 1.8 0.1 1.8 -0.8 0 -1.8 -0.3 -2.1 -0.7z"/>
  <path d="M287.5 692.2 c-0.3 -0.3 -0.5 -11 -0.5 -23.7 0 -21 0.2 -23.4 1.8 -24.6 1.4 -1.1 1.5 -1.1 0.5 0.1 -1 1 -1.3 7.2 -1.3 23.4 0 18.1 0.3 22.2 1.5 23.6 1.3 1.5 1.3 1.7 0 1.7 -0.8 0 -1.7 -0.3 -2 -0.5z"/>
  <path d="M189 681 l0 -11 6.8 0.2 6.7 0.2 -6.2 0.3 -6.3 0.4 0 9.9 0 9.9 4.3 0.4 4.2 0.4 -4.7 0.1 -4.8 0.2 0 -11z"/>
  <path d="M192 681 l0 -8 4.5 0 c3.9 0 10.5 2.2 10.5 3.4 0 0.3 0.3 1.2 0.7 2.1 0.5 1.5 0 1.7 -4.5 1 l-5.2 -0.7 0 5.1 c0 5 -0.1 5.1 -3 5.1 l-3 0 0 -8z"/>
  <path d="M244.2 686 c0 -1.9 0.2 -2.7 0.5 -1.7 0.2 0.9 0.2 2.5 0 3.5 -0.3 0.9 -0.5 0.1 -0.5 -1.8z"/>
  <path d="M276.3 679.5 c0 -3.8 0.2 -5.3 0.4 -3.2 0.2 2 0.2 5.2 0 7 -0.2 1.7 -0.4 0.1 -0.4 -3.8z"/>
  <path d="M244.3 677.5 c0 -2.7 0.2 -3.8 0.4 -2.2 0.2 1.5 0.2 3.7 0 5 -0.2 1.2 -0.4 0 -0.4 -2.8z"/>
  <path d="M172 678.5 c0 -0.8 -0.4 -1.5 -1 -1.5 -1.7 0 -1.1 -3.7 0.8 -4.2 3 -0.8 4.2 0.3 4.2 3.8 0 2.7 -0.4 3.4 -2 3.4 -1.1 0 -2 -0.7 -2 -1.5z"/>
  <path d="M177.8 675.3 c-0.3 -4.7 -0.4 -4.8 -3.3 -4.5 -2.3 0.3 -2.7 0.1 -1.8 -0.8 0.7 -0.8 2.2 -1 3.7 -0.6 2.4 0.6 2.6 1.1 2.6 5.6 0 6.3 -0.8 6.5 -1.2 0.3z"/>
  <path d="M251.7 677.3 c-0.4 -1.5 -0.9 -3.8 -1.3 -5 -0.4 -1.4 -0.2 -2.3 0.4 -2.3 0.6 0 1.4 2 1.8 4.5 0.7 5.1 0 7.2 -0.9 2.8z"/>
  <path d="M214 670.5 c-2.1 -2.5 -0.1 -3.1 2.3 -0.7 1.7 1.8 1.8 2.2 0.5 2.2 -0.8 0 -2.1 -0.7 -2.8 -1.5z"/>
  <path d="M189 654.5 c0 -5.2 0.3 -9.5 0.8 -9.5 0.4 0 0.6 4 0.4 8.9 l-0.3 9 4.3 0.4 4.3 0.4 -4.7 0.1 -4.8 0.2 0 -9.5z"/>
  <path d="M257.3 654.5 l-3.1 -9.4 2.5 -1.6 c1.7 -1.2 2.3 -2.3 2 -3.6 -0.5 -1.7 -0.1 -2 2.1 -1.7 2.5 0.3 2.7 0.7 3 5.1 0.2 3.6 0 4.7 -1.2 4.7 -2.3 0 -2.6 1.3 -1.1 5.6 1.8 5 1.9 10.4 0.2 10.4 -0.7 0 -2.6 -4.1 -4.4 -9.5z"/>
  <path d="M192 654 l0 -7 3.9 0 c2.8 0 4.9 0.8 7 2.6 4.2 3.5 4 4.8 -0.9 4.1 l-4 -0.5 0 3.9 c0 3.7 -0.2 3.9 -3 3.9 l-3 0 0 -7z"/>
 </g>
 <g fill="#808080">
  <path d="M177.7 672.1 c-0.3 -1.4 -1.1 -1.7 -3.2 -1.3 -2 0.3 -2.6 0.1 -2.1 -0.7 0.4 -0.6 1.8 -1.1 3.2 -1.1 3.8 0 2.8 -1.8 -1.3 -2.3 l-3.8 -0.4 4.3 -0.1 4.2 -0.2 0 4 c0 4.3 -0.5 5.1 -1.3 2.1z"/>
  <path d="M189.3 672 c0.2 -2 0.8 -2.6 3.2 -2.8 1.7 -0.2 4.2 0.1 5.5 0.7 2.1 0.8 1.8 1 -2.7 1 -4 0.1 -5.3 0.5 -5.7 1.9 -0.3 1 -0.4 0.6 -0.3 -0.8z"/>
  <path d="M190.8 666.3 c1.7 -0.2 4.7 -0.2 6.5 0 1.7 0.2 0.3 0.4 -3.3 0.4 -3.6 0 -5 -0.2 -3.2 -0.4z"/>
 </g>
 <g fill="#426e95">
  <path d="M209 704.5 c0 -0.8 0.7 -1.5 1.5 -1.5 0.8 0 1.5 -0.4 1.5 -0.9 0 -0.5 1.3 -1.1 2.9 -1.4 1.5 -0.3 4.2 -1.7 5.9 -3.1 3.1 -2.7 5.2 -3.3 5.2 -1.6 0 0.6 1.6 2.6 3.5 4.6 1.9 1.9 3.5 3.7 3.5 3.9 0 0.3 -1.6 0.5 -3.5 0.5 -2.5 0 -3.5 -0.4 -3.5 -1.6 0 -1.2 -0.5 -1.4 -1.7 -0.9 -9 3.8 -15.3 4.6 -15.3 2z"/>
  <path d="M171 701.4 c0 -3.9 0.4 -3.9 5.2 0.9 2.5 2.4 2.3 2.7 -1.7 2.7 -3.4 0 -3.5 -0.1 -3.5 -3.6z"/>
  <path d="M254.5 704 c-0.3 -0.5 0.1 -1 0.9 -1 0.9 0 1.6 -0.7 1.6 -1.5 0 -2 0.6 -1.9 3 0.5 1.1 1.1 2 2.2 2 2.5 0 1 -6.9 0.5 -7.5 -0.5z"/>
  <path d="M270 704 c0 -0.5 -0.6 -1 -1.4 -1 -1.9 0 -2.6 -3.3 -1 -4.8 1.8 -1.6 3.4 -1.5 3.4 0.3 0 0.8 0.5 1.5 1 1.5 1 0 5 3.6 5 4.5 0 0.3 -1.6 0.5 -3.5 0.5 -1.9 0 -3.5 -0.4 -3.5 -1z"/>
  <path d="M298.2 704.1 c-1 -0.6 -0.8 -1 0.9 -1.4 2.2 -0.6 2.2 -0.7 0.6 -2.4 -1 -1 -3.1 -3.5 -4.7 -5.7 l-3 -3.9 0 -21.2 c0 -19.3 0.2 -21.3 1.8 -22.8 1 -1 2.4 -1.7 3 -1.7 1.9 0 1.4 -0.9 -2 -4.1 -1.8 -1.6 -2.9 -2.9 -2.4 -2.9 0.5 0 0.3 -0.7 -0.4 -1.5 -1.1 -1.3 -0.7 -1.5 2.4 -1.5 2.7 0 3.6 0.4 3.6 1.8 0 0.9 0.7 2.6 1.5 3.6 2.3 3.1 1.9 7.5 -1 10.2 -2.5 2.3 -2.5 2.4 -2.5 20.4 0 11.3 0.4 18 1 18 0.6 0 1 1.6 1 3.5 0 2.6 0.8 4.2 3.7 7 2 1.9 4 3.5 4.5 3.5 0.4 0 0.8 0.5 0.8 1 0 1.2 -7 1.3 -8.8 0.1z"/>
  <path d="M328.5 699.8 c-5.9 -6.6 -6.8 -9.8 -3 -9.8 1.7 0 2.5 0.6 2.5 1.6 0 0.9 0.7 2.2 1.6 2.8 1 0.8 1.4 2.3 1.2 4.4 l-0.3 3.3 -2 -2.3z"/>
  <path d="M254 697.1 c-0.7 -1.5 -0.7 -2.1 0 -2.1 1.2 0 2.5 2.8 1.7 3.6 -0.3 0.3 -1 -0.4 -1.7 -1.5z"/>
  <path d="M231.4 693.5 c2.1 -1.6 3.2 -1.3 2.1 0.4 -0.3 0.6 -1.4 1.1 -2.3 1.1 -1.5 -0.1 -1.5 -0.2 0.2 -1.5z"/>
  <path d="M245 691.8 c0 -1.2 0.1 -1.9 0.3 -1.7 0.1 0.2 0.9 1.2 1.6 2.2 1.2 1.4 1.1 1.7 -0.3 1.7 -1 0 -1.6 -0.8 -1.6 -2.2z"/>
  <path d="M250.7 692.6 c-0.4 -1 -0.7 -3.1 -0.7 -4.7 0 -1.6 -0.4 -2.9 -1 -2.9 -0.5 0 -1 -1.1 -1 -2.5 0 -4.2 2.7 -2.9 3.8 1.8 1.2 4.6 0.2 11.8 -1.1 8.3z"/>
  <path d="M227.8 690.5 c-0.3 -1.4 -0.1 -2.5 0.3 -2.5 0.5 0 0.9 -0.7 0.9 -1.5 0 -1.7 1.8 -1.9 4 -0.5 1.8 1.1 0.6 3.5 -2.7 5.7 -1.9 1.3 -2.1 1.2 -2.5 -1.2z"/>
  <path d="M270.7 689 c-0.3 -1.1 -0.1 -2 0.5 -2 0.6 0 0.8 -0.6 0.5 -1.4 -0.3 -0.8 0.1 -1.7 0.9 -2 1.2 -0.5 1.5 0.2 1.2 3.1 -0.3 4.1 -2.2 5.5 -3.1 2.3z"/>
  <path d="M276.3 685.5 c0 -2.7 0.2 -3.8 0.4 -2.2 0.2 1.5 0.2 3.7 0 5 -0.2 1.2 -0.4 0 -0.4 -2.8z"/>
  <path d="M253.7 684.3 c-0.4 -1.5 -1 -3.9 -1.3 -5.2 -0.5 -1.6 -0.4 -2.2 0.4 -1.8 0.5 0.4 1.3 2.5 1.7 4.8 0.8 4.6 0.1 6.4 -0.8 2.2z"/>
  <path d="M229 680.5 c0 -0.8 -0.5 -1.5 -1 -1.5 -0.6 0 -1.7 -1.8 -2.6 -4 -0.9 -2.2 -2 -4 -2.5 -4 -0.4 0 -1.4 -1 -2 -2.2 -1 -1.8 -0.8 -2.4 0.9 -3.9 1.2 -0.9 1.8 -1.9 1.5 -2.3 -0.4 -0.3 -0.1 -0.6 0.6 -0.6 0.7 0 0.9 -0.4 0.6 -1 -0.3 -0.5 -0.2 -1 0.2 -1 0.5 0 0.9 -2.2 0.9 -5 0 -2.7 -0.4 -5 -0.8 -5 -0.5 0 -1.1 -0.8 -1.5 -1.7 -0.3 -1 -1.3 -2.6 -2.1 -3.5 -1.4 -1.7 -1.2 -1.8 2.1 -1.8 3.2 0 3.6 0.3 4.2 3.2 0.4 1.8 1.2 4 1.8 5 1.5 2.3 -0.6 14.3 -2.9 16.9 -1.6 1.8 -1.6 1.9 0.5 1.9 1.4 0 2.5 0.9 3.1 2.6 1.3 3.3 1.3 9.4 0 9.4 -0.5 0 -1 -0.7 -1 -1.5z"/>
  <path d="M222.6 677.9 c-0.8 -4.2 0 -5 0.9 -0.9 0.4 1.7 0.5 3.4 0.2 3.6 -0.2 0.3 -0.7 -1 -1.1 -2.7z"/>
  <path d="M198.4 679.3 c-2.4 -0.3 -3.3 -1 -3.7 -2.9 -0.4 -2.5 1.5 -3.4 2.9 -1.3 0.4 0.7 2 0.9 3.9 0.6 3.1 -0.5 6.5 1.4 6.5 3.6 0 0.7 -4 0.7 -9.6 0z"/>
  <path d="M170.3 678.3 c-0.7 -0.2 -1.3 -1.3 -1.3 -2.4 0 -1 -0.7 -1.9 -1.5 -1.9 -1 0 -1.5 -1.1 -1.5 -3.5 0 -4.4 2.6 -4.8 3.5 -0.5 0.4 1.7 1.2 3 1.8 3 1.9 0 3.4 1.4 4.1 3.8 0.6 1.8 0.4 2.2 -1.6 2.1 -1.3 0 -2.9 -0.3 -3.5 -0.6z"/>
  <path d="M244.3 673 c0 -3.6 0.2 -5 0.4 -3.2 0.2 1.7 0.2 4.7 0 6.5 -0.2 1.7 -0.4 0.3 -0.4 -3.3z"/>
  <path d="M276.3 673 c0 -3.6 0.2 -5 0.4 -3.2 0.2 1.7 0.2 4.7 0 6.5 -0.2 1.7 -0.4 0.3 -0.4 -3.3z"/>
  <path d="M247 673 c0 -1.6 0.2 -3 0.4 -3 0.2 0 0.6 1.4 0.8 3 0.3 1.7 0.1 3 -0.4 3 -0.4 0 -0.8 -1.3 -0.8 -3z"/>
  <path d="M250.6 673.3 c-0.4 -1.5 -0.9 -3.6 -1.2 -4.5 -0.3 -1 -0.1 -1.8 0.4 -1.8 0.5 0 1.2 1.9 1.6 4.1 0.8 4.8 0.2 6.4 -0.8 2.2z"/>
  <path d="M272.6 673.3 c1 -4 1.4 -4.1 1.4 -0.5 0 1.8 -0.5 3.2 -1 3.2 -0.6 0 -0.8 -1.1 -0.4 -2.7z"/>
  <path d="M265.8 668.3 c0.9 -2.6 1.7 -4.2 2 -3.5 0.5 1.5 -1.7 8.2 -2.7 8.2 -0.5 0 -0.1 -2.1 0.7 -4.7z"/>
  <path d="M212 669 c0 -0.5 0.6 -1 1.4 -1 0.8 0 1.8 0.5 2.1 1 0.3 0.6 -0.3 1 -1.4 1 -1.2 0 -2.1 -0.4 -2.1 -1z"/>
  <path d="M260.6 664 c-2.5 -9.1 -3.9 -13.3 -4.8 -14.4 -0.9 -1.2 2 -4.6 3.9 -4.6 2 0 1.5 -2.4 -1.2 -5.4 l-2.4 -2.6 3.2 0 c1.8 0 3.8 0.5 4.5 1.2 1.6 1.6 1.5 9.3 -0.1 10.7 -1.1 0.9 -1.2 1.9 -0.2 5.3 0.6 2.4 1.5 5 1.9 6 0.4 0.9 0 3.4 -1.1 5.9 l-1.9 4.4 -1.8 -6.5z"/>
  <path d="M201 654 c0 -0.5 -1.3 -1 -2.9 -1 -2.1 0 -3 -0.6 -3.4 -2.1 -0.5 -1.7 -0.2 -2 1.4 -1.6 1 0.3 1.9 0.1 1.9 -0.4 0 -1.7 2.9 -0.9 5.4 1.5 3.3 3 3.3 4.6 0.1 4.6 -1.4 0 -2.5 -0.4 -2.5 -1z"/>
  <path d="M322.8 649.3 c-0.3 -1 0.6 -2.7 2.1 -3.9 l2.5 -2.1 -2.7 -2.9 -2.7 -2.9 3.1 -0.3 c1.7 -0.2 3.3 -0.2 3.5 0.1 0.2 0.2 0.7 2.5 1 5 0.5 3.8 0.3 5.1 -1.1 6.7 -2.2 2.5 -5.2 2.6 -5.7 0.3z"/>
  <path d="M287.1 647.9 c0 -1.5 0.7 -3.3 1.7 -4 1.5 -1.2 1.6 -1.2 0.5 0.1 -0.6 0.8 -1.3 2.6 -1.6 4 l-0.4 2.5 -0.2 -2.6z"/>
  <path d="M317.1 646.9 c0 -1.5 0.7 -3.3 1.7 -4 1.5 -1.2 1.6 -1.2 0.5 0.1 -0.6 0.8 -1.3 2.6 -1.6 4 l-0.4 2.5 -0.2 -2.6z"/>
  <path d="M185.5 639 c5.1 -1.7 15.5 -2.4 15.5 -1.1 0 0.6 -1.6 1.1 -3.7 1.1 -2.1 0 -6.3 0.2 -9.3 0.5 -4.6 0.4 -5 0.3 -2.5 -0.5z"/>
  <path d="M183 635.4 c0 -3.6 2.7 -4.7 10.5 -3.9 5.3 0.5 7.5 1.1 7.5 2 0 1.5 -2.2 2 -12.2 3 -4.9 0.4 -5.8 0.3 -5.8 -1.1z"/>
 </g>
 <g fill="#616161">
 </g>
 <g fill="#305b80">
  <path d="M171.1 709 c-2.4 -0.5 -4.9 -1.4 -5.7 -2 -2.4 -2 -3.4 -7.3 -3.4 -18 -0.1 -5.8 -0.1 -15 -0.2 -20.5 -0.2 -13.7 1.5 -29.8 3.5 -32.8 5.3 -8.1 30.8 -12 49.5 -7.6 4 1 6.3 1 10.3 0.1 3.5 -0.8 19.9 -1.2 53.1 -1.2 l48 0 3 3 c2.9 3 2.9 3 2.4 11.7 -0.3 4.9 -0.8 15.1 -1.2 22.8 -0.5 13.4 -0.5 14.3 2 20.9 3.5 9.2 3.6 17.7 0.2 21 -1.9 2 -3.8 2.5 -10.7 3.1 -6.4 0.5 -97.3 0.1 -102.4 -0.5 -0.5 0 -10.7 0.1 -22.5 0.4 -11.8 0.3 -23.5 0.1 -25.9 -0.4z m44 -7 c2 -0.6 5.3 -2.1 7.3 -3.5 3.4 -2.3 3.6 -2.3 4.6 -0.5 2.5 4.7 3.5 5 17.1 5 8.2 0 12.9 -0.4 12.9 -1 0 -0.7 0.6 -0.7 1.9 0 1.1 0.5 3.3 1 4.9 1 2.3 0 3.1 -0.5 3.6 -2.4 0.7 -2.7 3.6 -4.4 3.6 -2.1 0 0.8 0.7 1.5 1.6 1.5 0.8 0 1.3 0.4 1 0.9 -1 1.6 2.4 2.1 14.5 2.1 10 0 12.1 -0.3 12.6 -1.6 0.5 -1.3 0.7 -1.3 1.4 -0.2 1 1.6 27.9 2.6 27.9 1 0 -0.6 -1.1 -2.4 -2.5 -4 -1.4 -1.7 -2.5 -3.5 -2.5 -4.1 0 -0.6 -0.4 -1.1 -1 -1.1 -0.6 0 -1 -8.1 -1 -22.3 0 -21.1 0.1 -22.5 2 -24.2 2.7 -2.4 2.5 -3.6 -1 -7.4 l-3 -3.1 -11.5 0 c-12.8 0 -13.7 0.5 -8.5 5.5 l3 2.9 0 22 0 22 -3.2 3.3 c-2.6 2.7 -2.9 3.5 -1.8 4.8 0.7 0.8 0.9 1.5 0.5 1.5 -1.4 0 -4.5 -3.2 -4.5 -4.7 0 -0.7 -0.4 -1.3 -1 -1.3 -0.6 0 -1 -7.7 -1 -21 l0 -21.1 2.7 -2.5 2.6 -2.4 -1.8 -3.4 c-1.1 -2.1 -2.4 -3.2 -3.2 -2.9 -0.8 0.3 -1.3 0 -1.1 -0.8 0.2 -1.1 -2.3 -1.5 -12.4 -1.7 -8.8 -0.2 -12.8 0.1 -12.8 0.8 0 0.6 1.1 2.6 2.5 4.4 l2.5 3.3 -3.2 9.2 c-2.5 6.9 -3.7 9.1 -5.1 9.1 -1 0 -1.9 -0.6 -2.1 -1.2 -0.2 -0.7 -1.2 -4.1 -2.2 -7.6 -1.7 -6.3 -1.7 -6.3 0.4 -7.8 3 -2.1 2.8 -3.6 -1.3 -7.2 l-3.4 -3.2 -12 0 c-6.6 0 -12.2 0.4 -12.6 0.9 -0.3 0.6 0.8 2.6 2.6 4.5 l3 3.5 -0.3 21 -0.3 21.1 -2.8 2.7 c-1.8 1.8 -2.6 2.2 -2.1 1.1 0.3 -1.1 0.1 -1.8 -0.5 -1.8 -0.6 0 -1.1 -1.8 -1.1 -4.4 0 -5.5 -2.1 -10.5 -5.4 -13 -3.1 -2.3 -3.3 -3.7 -0.7 -6 3.7 -3.4 4.3 -10.9 1.5 -17.6 -1 -2.4 -8.1 -8.1 -10.6 -8.5 -1.3 -0.2 -5 -1.4 -8.3 -2.5 -4 -1.5 -7.4 -2 -10.2 -1.7 -2.4 0.2 -4.3 0.1 -4.3 -0.4 0 -0.5 -0.7 -0.9 -1.5 -0.9 -0.8 0 -1.5 0.4 -1.5 0.9 0 0.5 -1 1.3 -2.2 1.6 -3.9 1.2 -14.8 6.7 -14.8 7.5 0 0.4 1.1 1.5 2.5 2.4 2.2 1.5 2.5 2.3 2.5 8.1 0 6.1 -0.1 6.5 -2.3 6.5 -1.6 0 -2.8 0.9 -3.5 2.5 -2.1 4.5 -1.2 9.5 1.6 9.5 0.8 0 1.2 0.3 0.9 0.7 -0.4 0.3 0.2 1.2 1.3 2 1.6 1.1 2 2.6 2 7.1 0 4.9 -0.4 6 -3.1 8.9 -3.1 3.1 -3.2 3.3 -1.5 5.8 0.9 1.4 2.1 2.5 2.7 2.5 0.6 0 0.8 0.4 0.5 0.9 -0.4 0.5 0 1.2 0.6 1.4 2.4 1 36.3 0.7 39.9 -0.3z"/>
  <path d="M252.7 695.8 c-2.5 -2.7 -3.5 -8.8 -1.4 -8.8 0.9 0 1.9 1.6 2.6 4.3 0.7 2.3 1.5 4.8 1.7 5.5 0.8 1.8 -0.9 1.3 -2.9 -1z"/>
  <path d="M174 694.2 c0 -0.5 0.9 -1.7 2 -2.7 1.5 -1.4 2 -3.3 2.3 -9.9 l0.3 -8.1 0.2 9.1 c0.2 7.7 -0.1 9.3 -1.6 10.7 -2 1.9 -3.2 2.2 -3.2 0.9z"/>
  <path d="M232.7 692.4 c1.9 -1.4 3.7 -4 4.3 -6.2 0.5 -2 1 -12.3 1 -22.8 0 -17.6 -0.2 -19.3 -2 -21.7 -1.1 -1.4 -2 -2.8 -2 -3.1 0 -0.3 4.4 -0.5 9.8 -0.4 l9.7 0.2 -8.3 0.3 c-7 0.3 -8.2 0.6 -7.2 1.8 0.8 1 1 8.3 0.8 25.4 -0.3 23.8 -0.3 24 -2.7 26.5 -1.4 1.4 -3.4 2.6 -4.5 2.6 -1.8 0 -1.7 -0.4 1.1 -2.6z"/>
  <path d="M254.4 686.4 c-1.4 -4.7 -2.3 -8.8 -2 -9.1 0.9 -1 1.2 -0.3 3.4 7.2 1.1 3.9 2.3 7.8 2.7 8.8 0.4 1 0.3 1.7 -0.4 1.7 -0.6 0 -2.2 -3.9 -3.7 -8.6z"/>
  <path d="M272 694.2 c0 -0.5 0.9 -1.7 2 -2.7 1.3 -1.2 2 -3.4 2.3 -6.9 0.3 -4.8 0.3 -4.7 0.5 1.5 0.2 6.5 -0.8 8.9 -3.5 8.9 -0.7 0 -1.3 -0.4 -1.3 -0.8z"/>
  <path d="M302 694.2 c0 -0.5 0.9 -1.7 2 -2.7 1.9 -1.7 2 -3.1 2 -24.6 l0 -22.7 -2.6 -3.1 -2.6 -3.1 9.4 0.2 9.3 0.2 -7.5 0.5 c-4.4 0.4 -7 0.9 -6.2 1.4 0.9 0.6 1.2 7 1.2 26.1 0 23.2 -0.1 25.4 -1.8 26.9 -2 1.9 -3.2 2.2 -3.2 0.9z"/>
  <path d="M197 691.1 c6.4 -0.9 9.3 -2.2 11.4 -5.3 1.8 -2.5 2.2 -9.8 0.5 -9.8 -0.5 0 -0.7 -0.5 -0.4 -1 1.4 -2.2 2.5 0.4 2.5 5.5 0 4.2 -0.5 6 -2.4 8.2 -2.1 2.5 -3.1 2.7 -9.7 2.9 -7.2 0.3 -7.3 0.2 -1.9 -0.5z"/>
  <path d="M271.2 690 c0.1 -1.3 0.9 -2.5 1.6 -2.8 1.7 -0.5 1.5 2.3 -0.4 3.9 -1.4 1.1 -1.5 1 -1.2 -1.1z"/>
  <path d="M195 682.6 l0 -6.6 3.9 0 c6 0 9.1 1.5 9.1 4.4 0 4 -3.9 7.6 -8.8 8.3 l-4.2 0.6 0 -6.7z"/>
  <path d="M266 668.5 c0 -0.3 1.8 -5.9 4.1 -12.4 l4.1 -12 -2.2 -3.1 -2.1 -3 9.8 0.2 9.8 0.2 -8.5 0.5 c-4.9 0.4 -8 0.9 -7.2 1.4 0.6 0.5 1.2 2.3 1.2 4 0 3.5 -7.1 24.7 -8.2 24.7 -0.5 0 -0.8 -0.2 -0.8 -0.5z"/>
  <path d="M171.4 665.4 c0.3 -0.9 0.6 -1.8 0.6 -2 0 -0.2 1.4 -0.4 3 -0.4 l3 0 0 -7.9 c0 -6.9 -0.3 -8.2 -2 -9.4 -2.1 -1.4 -2 -1.4 0.3 -3 8.3 -5.4 23.8 -6.8 32.2 -2.8 6.5 3 4 4 -2.8 1 -6.6 -2.8 -13.6 -2.7 -21.2 0.3 l-5.8 2.3 0.2 10.3 0.2 10.2 -2.4 0 c-1.4 0 -2.7 0.7 -3.1 1.5 -0.3 0.8 -1 1.5 -1.7 1.5 -0.6 0 -0.8 -0.7 -0.5 -1.6z"/>
  <path d="M196.6 663 c6.4 -0.9 10.2 -3.4 11.3 -7.4 0.9 -3 0.9 -3 1 -0.4 0.2 6.1 -3.7 8.9 -12.1 8.7 l-5.3 -0.1 5.1 -0.8z"/>
  <path d="M195 655.6 c0 -4.9 0.2 -5.4 2.5 -5.8 2.9 -0.6 8.5 1.9 8.5 3.7 0 3.9 -4.4 7.5 -9 7.5 -1.8 0 -2 -0.6 -2 -5.4z"/>
 </g>
 <g fill="#294d6b">
  <path d="M170.8 712.1 c-9.4 -2 -11.8 -6.5 -11.9 -21.9 0 -5.9 -0.1 -15.9 -0.2 -22.2 -0.1 -15.5 1.5 -30.8 3.6 -34.1 5.9 -8.9 30.3 -13.5 49.9 -9.4 6.1 1.3 8.1 1.4 12.3 0.3 3.7 -0.9 17.8 -1.2 52.5 -1.3 43.8 0 47.8 0.1 51.1 1.8 5.8 2.9 7.2 6.6 6.5 17.2 -0.4 5 -0.9 15.1 -1.2 22.5 -0.5 12.8 -0.4 13.9 2 20.3 3 7.7 3.5 17.1 1.1 21.6 -2.8 5.5 -3.5 5.6 -58 5.6 -27.5 0 -52.2 -0.1 -55 -0.3 -2.7 -0.1 -14.9 0 -27 0.2 -12.1 0.3 -23.6 0.2 -25.7 -0.3z m48.7 -6.3 c22.3 0.8 92.9 1.2 99.4 0.7 13.4 -1.1 15.5 -4.8 10.5 -18.1 -2.5 -6.7 -2.5 -7.4 -2 -23.9 0.3 -9.3 0.8 -19.6 1.2 -22.7 0.5 -5.5 0.4 -5.9 -2.4 -8.8 l-3 -3 -45.1 0 c-36.7 0 -46.2 0.3 -51.5 1.5 -5.9 1.4 -7.3 1.4 -13.2 0 -15 -3.5 -28.4 -2.6 -39.1 2.6 -6.1 3 -7.5 5.6 -8.4 15.8 -0.5 4.7 -1.1 11.5 -1.4 15.1 -0.5 4.4 -0.2 8.6 0.9 12.9 1.2 5 1.3 7.6 0.5 12 -1.2 6 -0.1 11.9 2.5 14 2.8 2.4 10.5 3 28.6 2.4 10.2 -0.3 20.3 -0.5 22.5 -0.5z"/>
 </g>
 <g fill="#404040">
 </g>
 <g fill="#253e54">
  <path d="M168.1 714.8 c-4.4 -1.2 -7.6 -3.3 -9.8 -6.6 -3.1 -4.7 -4.6 -40.7 -2.5 -61 1.2 -12.6 2.8 -16.3 8.1 -19.9 9.5 -6.4 26.9 -9.5 40.9 -7.3 4.8 0.8 11.9 1.2 15.7 1 3.9 -0.2 29.3 -0.4 56.5 -0.4 48.2 -0.1 49.6 0 53 2 8 4.6 10.3 13.4 7.6 28.3 -2.5 13.8 -2.2 24.6 1.1 32.8 2 5.2 2.6 8.6 2.6 14.3 0.1 8.9 -1.5 12.6 -6.3 15.4 -3.4 2.1 -4.8 2.1 -83.5 2.2 -47.5 0.1 -81.4 -0.2 -83.4 -0.8z m55.4 -5.7 c4.4 0.2 29.2 0.4 55 0.4 51.2 0 52.2 -0.1 55 -5.6 2.1 -4 1.9 -7.9 -1.1 -15.6 -2.5 -6.6 -2.5 -7.3 -2 -23.8 0.3 -9.3 0.8 -19.5 1.2 -22.5 0.8 -6.8 -1.3 -11.1 -6.5 -13.7 -3.3 -1.7 -7.1 -1.8 -47.6 -1.7 -33.1 0 -45.7 0.4 -50.8 1.4 -5.7 1.2 -8 1.2 -14 0 -17.2 -3.2 -30.4 -2 -40.8 3.7 -6.8 3.7 -8.1 6.1 -9.3 17.8 -0.9 9.8 -1 14.3 -0.4 39 0.5 20.5 2.6 21.8 34.3 20.8 10.5 -0.3 22.6 -0.4 27 -0.2z"/>
 </g>
 <g fill="#111a23">
  <path d="M168.5 718 c-7.7 -1.8 -13.7 -7.2 -15.5 -14.1 -0.6 -2.2 -1.1 -8.6 -1.1 -14.2 0 -5.6 -0.1 -15.6 -0.1 -22.2 -0.2 -15.4 1.4 -32.2 3.4 -36 6.5 -12.2 32.9 -18.8 56.4 -14 5.6 1.2 8.3 1.3 11.2 0.5 2.3 -0.6 22.1 -1 53.3 -1 l49.5 0 5.5 2.8 c7.9 4 10.4 8.9 10.2 20.2 0 4.7 -0.6 10.5 -1.2 13 -0.6 2.5 -1.1 8.8 -1.1 14.1 0 8 0.4 10.9 2.6 16.5 2.2 6 2.5 8.1 2.2 16.1 -0.4 10.5 -1.8 13.5 -8.4 16.8 -3.8 1.9 -6 2 -83.9 2.1 -44 0.1 -81.3 -0.2 -83 -0.6z m163.5 -7.6 c6.7 -3.9 8 -12.1 3.6 -23.7 -2.3 -5.9 -2.6 -8.3 -2.6 -18.5 0 -6.4 0.7 -15.2 1.5 -19.5 2.3 -11.9 0.1 -18.7 -7.6 -23.2 -3.2 -1.9 -5.4 -2 -48.4 -2.2 -37.7 -0.2 -46.2 0 -52.3 1.3 -6.7 1.4 -8 1.4 -14.5 0 -11.9 -2.6 -16.8 -2.8 -25.4 -1.2 -8.4 1.4 -18.2 5.3 -21.6 8.4 -3.5 3.1 -4.8 7.2 -5.8 17.5 -0.5 5.6 -1.2 12.5 -1.5 15.2 -0.4 3 0 7.6 0.9 11.5 1.1 4.4 1.4 9.2 1 15.1 -0.5 6.9 -0.2 9.3 1.2 12.2 2 4.3 5.6 7.1 10.5 8.5 2.1 0.5 35.1 0.9 80.5 0.8 75.7 -0.1 77.1 -0.1 80.5 -2.2z"/>
 </g>
 <g fill="#0b1015">
  <path d="M168.5 720.3 c-5.8 -1.4 -11.5 -4.8 -13.9 -8.1 -4 -5.9 -4.7 -9 -4.5 -19.7 0.1 -5.5 -0.4 -13.2 -1.1 -17.2 -1 -5.7 -1.1 -8.8 0 -16 0.6 -4.8 1.5 -12.6 1.9 -17.3 0.4 -4.7 1.5 -9.9 2.4 -11.6 3.5 -6.8 12.1 -12.1 24.2 -15 7.6 -1.7 28.2 -1.8 35.5 -0.1 3.8 0.9 6.5 1 8.5 0.4 4.4 -1.4 93.4 -2 102 -0.7 16.8 2.5 23.1 14.9 19.1 37.5 -2.4 13.5 -2.1 21.3 1.1 30.3 2.3 6.2 2.8 9.3 2.7 16.2 -0.1 11.1 -2.3 15.8 -9.1 19.1 l-4.8 2.4 -81 0.1 c-44.5 0.1 -81.9 -0.1 -83 -0.3z m163.9 -6.8 c5.8 -2.9 7.9 -6.4 8.4 -13.8 0.3 -4.9 -0.2 -7.6 -2.2 -13.1 -2.3 -6.1 -2.6 -8.3 -2.6 -19.5 0 -6.9 0.5 -14.4 1 -16.6 0.6 -2.2 1 -6.8 1.1 -10.2 0.1 -8.9 -2.8 -13.9 -10.1 -17.6 l-5.5 -2.8 -48.5 0.5 c-26.7 0.2 -50.5 0.7 -53 1.1 -2.9 0.4 -7.4 0.1 -12.2 -0.9 -10.2 -2.1 -18.9 -2 -28.1 0.3 -12.3 3.2 -19.2 7.3 -22.5 13.6 -1.8 3.6 -3.6 20.4 -3.4 33 0.4 27.8 0.8 34.1 2.1 36.5 3.1 5.7 8.3 9.6 14.6 11 1.7 0.4 37.6 0.6 80 0.6 74.9 -0.1 77.1 -0.2 80.9 -2.1z"/>
 </g>
 <g fill="#000000">
  <path d="M131 621.5 l0 -110.5 21.8 0 21.9 0 0.6 9.3 c2.1 31.1 22.8 57.1 53.2 66.7 9.9 3.1 25.5 3.8 36.5 1.6 32.6 -6.5 57.8 -35.2 59.7 -67.8 l0.6 -9.8 22.3 0 22.4 0 0.2 43.6 0.3 43.6 5.5 -7.3 c10.1 -13.5 19.3 -18.4 34.5 -18.4 7.7 0 9.9 0.5 14.8 2.8 20.9 9.7 30 32.8 20.7 52.5 -7.1 15.1 -21.7 24.3 -38.4 24.3 -13.4 0 -21.7 -4.8 -31.7 -18.3 l-5.4 -7.2 -0.3 52.7 -0.2 52.7 -119.5 0 -119.5 0 0 -110.5z m203.3 93.6 c9.2 -4.5 11.4 -14.9 6.3 -29.5 -2.6 -7.5 -2.8 -8.7 -2.3 -20.5 0.2 -6.9 1 -15.6 1.7 -19.2 1.1 -5.7 1 -7.3 -0.4 -12.3 -2.1 -7 -7.6 -12.9 -13.8 -14.8 -6.3 -1.9 -92.7 -1.8 -101.4 0.1 -5.3 1.1 -7.1 1.1 -13.2 -0.3 -17.9 -4.1 -39.6 -0.4 -49.6 8.4 -5.3 4.7 -6.8 8.3 -7.7 18.5 -0.5 5 -1.3 12 -1.8 15.7 -0.9 5.3 -0.8 8.3 0.4 14 1.1 4.9 1.3 9.5 0.9 14.4 -0.8 9.2 -0.1 13 3.6 18.6 2.9 4.3 8.2 7.6 14.5 9 1.1 0.3 37.1 0.4 80 0.4 l78 -0.1 4.8 -2.4z"/>
  <path d="M182.7 697.3 c5.1 -0.2 13.5 -0.2 18.5 0 5.1 0.1 1 0.3 -9.2 0.3 -10.2 0 -14.3 -0.2 -9.3 -0.3z"/>
  <path d="M234.3 697.3 c3.1 -0.2 8.3 -0.2 11.5 0 3.1 0.2 0.5 0.3 -5.8 0.3 -6.3 0 -8.9 -0.1 -5.7 -0.3z"/>
  <path d="M259.5 697.3 c1.1 -0.3 2.4 -1 2.8 -1.7 0.6 -0.7 0.7 -0.6 0.4 0.4 -0.2 0.8 -1.4 1.6 -2.8 1.7 -1.9 0.1 -2 0.1 -0.4 -0.4z"/>
  <path d="M278.3 697.3 c3.1 -0.2 8.3 -0.2 11.5 0 3.1 0.2 0.5 0.3 -5.8 0.3 -6.3 0 -8.9 -0.1 -5.7 -0.3z"/>
  <path d="M308.3 697.3 c3.2 -0.2 8.1 -0.2 11 0 2.9 0.2 0.3 0.3 -5.8 0.3 -6 0 -8.4 -0.1 -5.2 -0.3z"/>
  <path d="M214.6 695 c6.9 -3.5 10.2 -12.2 7.3 -19.7 -0.8 -2.2 -0.8 -2.5 0.2 -1.6 2.3 2.3 2.3 10.6 0 15 -2 4 -7.4 8.3 -10.2 8.3 -0.8 0 0.4 -0.9 2.7 -2z"/>
  <path d="M174 694.2 c0 -0.5 0.9 -1.7 2 -2.7 1.7 -1.6 2 -3.1 2 -11 0 -5.7 -0.4 -9.5 -1.2 -10.3 -0.9 -0.9 -0.9 -1.2 0 -1.2 0.7 0 1.2 -0.4 1.2 -1 0 -0.5 -1.6 -1 -3.6 -1 -2.9 0 -3.5 -0.3 -3 -1.6 0.3 -0.9 0.6 -1.8 0.6 -2 0 -0.2 1.4 -0.4 3 -0.4 l3 0 0 -7.9 c0 -6.9 -0.3 -8.2 -2 -9.4 -2.1 -1.4 -2 -1.4 0.3 -3 8 -5.2 23.8 -6.8 31.8 -3.1 2.5 1.2 5.6 3.5 6.8 5.2 4 5.7 2.4 14.9 -3 17.8 -3 1.5 -4.1 4.1 -1.4 3 0.8 -0.3 1.5 0 1.5 0.7 0 0.7 1 1.7 2.2 2.2 4.9 2.2 7.4 11.3 4.9 17.7 -0.5 1.5 -2.9 4 -5.2 5.5 -4.2 2.8 -4.5 2.8 -22.1 3.1 -10.5 0.2 -17.8 0 -17.8 -0.6z m15 -13.6 c0 -5.8 0.3 -10.7 0.8 -10.9 0.4 -0.3 0.5 4.4 0.4 10.4 l-0.4 10.9 5.1 0 c6.2 0 11.2 -1.9 13.5 -5.1 1.8 -2.6 2.2 -9.9 0.5 -9.9 -0.5 0 -0.7 -0.5 -0.4 -1 2.6 -4.2 -5.5 -8.3 -15.5 -7.8 l-6.5 0.3 -0.3 11.8 c-0.2 10 0 11.7 1.3 11.7 1.2 0 1.5 -1.7 1.5 -10.4z m0 -26.7 c0 -4.9 0.3 -8.9 0.8 -8.9 0.4 0 0.6 4 0.4 9 l-0.3 9 4.6 0 c5.5 0 11.1 -2.4 12.7 -5.3 1.6 -3.1 1.3 -9 -0.6 -11.9 -2.3 -3.6 -6.7 -5.1 -12.6 -4.6 -7.5 0.7 -8 1.5 -8 12.3 0 5 0.3 9.5 0.6 9.8 1.7 1.7 2.4 -1.1 2.4 -9.4z"/>
  <path d="M203.2 646.8 c-0.7 -0.7 -3.6 -1.5 -6.5 -1.9 l-5.2 -0.6 4.6 -0.2 c3.3 -0.1 5.4 0.5 7 1.9 1.3 1 2.2 1.9 1.9 2 -0.4 0 -1.2 -0.6 -1.8 -1.2z"/>
  <path d="M232.7 692.4 c1.9 -1.4 3.7 -4 4.3 -6.2 0.5 -2 1 -12.3 1 -22.8 0 -17.6 -0.2 -19.3 -2 -21.7 -1.1 -1.4 -2 -2.8 -2 -3.1 0 -0.3 4.4 -0.6 9.7 -0.6 l9.7 0 -2.8 2.9 -2.8 2.9 6 18.1 c3.2 10 6.3 18.3 6.8 18.4 0.5 0.1 1.1 -0.9 1.3 -2.3 0.1 -1.4 0.7 -2.7 1.1 -3 0.4 -0.3 3.1 -7.3 6 -15.7 l5.2 -15.2 -2.2 -3.1 -2.1 -3 9.5 0 c5.3 0 9.6 0.4 9.6 0.8 0 0.5 -0.9 1.7 -2 2.7 -1.9 1.7 -2 3.1 -2 25.1 0 14.4 0.4 23.5 1 23.9 0.7 0.4 1 -7.3 1 -22.3 0 -20.7 0.2 -23.1 1.8 -24.3 1.4 -1.1 1.5 -1.1 0.5 0.1 -1 1 -1.3 7.2 -1.3 23.4 0 19.5 0.2 22.2 1.8 23.9 0.9 1.1 1.1 1.7 0.4 1.3 -0.7 -0.4 -1.5 -0.1 -1.8 0.8 -0.5 1.3 -2.3 1.6 -8.5 1.6 -4.3 0 -7.9 -0.4 -7.9 -0.8 0 -0.5 0.9 -1.7 2 -2.7 1.9 -1.7 2 -3 2 -22.3 -0.1 -12.1 -0.5 -20.1 -1 -19.6 -0.5 0.5 -4.1 10.7 -8 22.6 -6.6 20.2 -8.2 23.9 -9.7 22.4 -0.3 -0.3 -2.8 -8.1 -5.5 -17.3 -2.7 -9.2 -5.4 -17.2 -5.9 -17.7 -0.8 -0.9 -1.3 11.1 -1.1 26.4 l0.1 3.5 -0.9 -3.5 c-0.6 -1.9 -1 -9.8 -0.9 -17.5 0 -19.6 0 -19.5 -1.1 -19.5 -1.4 0 -1.3 35.8 0.1 39.9 1.1 3 2.4 4 3.1 2.2 0.2 -0.5 1.1 0.2 2.1 1.5 l1.8 2.4 -9.8 0 -9.8 0 3.2 -2.6z"/>
  <path d="M302 694.2 c0 -0.5 0.9 -1.7 2 -2.7 1.9 -1.7 2 -3.1 2 -24.6 l0 -22.7 -2.6 -3.1 -2.6 -3.1 9.2 0 9.2 0 -2.6 3.5 -2.6 3.4 0.2 22.6 c0.2 14.1 0.7 22.5 1.3 22.5 0.6 0 1.1 -8.5 1.3 -22.9 0.2 -22.2 0.3 -22.9 2.5 -24.7 2.2 -1.9 2.2 -1.9 0.5 0.2 -1.6 1.8 -1.8 4.6 -1.8 25.1 0 19.6 0.2 23.2 1.5 24.3 1.3 1.1 1.3 1.5 0.3 2.1 -1.7 1.1 -17.8 1.1 -17.8 0.1z"/>
  <path d="M217.5 661.2 c1.1 -1.3 2.2 -4.6 2.6 -7.5 l0.6 -5.2 0.2 4.7 c0.1 4 -0.4 5.3 -2.6 7.6 -1.6 1.5 -1.9 1.7 -0.8 0.4z"/>
  <path d="M405 710.1 l0 -21.8 8.8 -0.7 c37.5 -2.8 65.6 -29.6 70.3 -67.1 3.5 -27.5 -10 -55.4 -34.3 -71.3 -10 -6.4 -20.5 -10 -34 -11.4 l-10.8 -1.2 0 -13.3 0 -13.3 43.8 0 43.7 0 -3.5 -2.7 c-14.1 -11 -20 -20.4 -20.8 -33.4 -1.2 -20.8 12.5 -38.4 33 -41.9 28.6 -5 52.7 22.8 44 50.8 -2.7 8.6 -6.9 14 -16.2 20.7 l-8.1 6 52.5 0.3 52.6 0.2 0 111 0 111 -110.5 0 -110.5 0 0 -21.9z"/>
  <path d="M243.2 553.9 c-20.7 -3.5 -35.5 -23.9 -32.3 -44.7 1.8 -12.1 6.6 -19.6 18.1 -28.4 l7 -5.3 -52.5 -0.3 -52.5 -0.2 0 -119.5 0 -119.5 119.5 0 119.5 0 0 39 c0 21.5 -0.2 39 -0.5 39 -0.2 0 -1.9 -0.9 -3.7 -2 -10.6 -6.5 -28.8 -8 -42.3 -3.5 -12.1 4 -21.1 10.7 -27 20 -22 34.5 2.6 77.5 44.3 77.5 7.9 0 16.2 -2 23.2 -5.5 2.7 -1.4 5.2 -2.5 5.5 -2.5 0.3 0 0.5 17.3 0.5 38.5 l0 38.5 -53.1 0.2 -53.1 0.3 6.6 4.8 c11.1 8.2 16.6 16.4 18.7 28.1 3.8 20.6 -10.9 41.6 -32 45.6 -6 1.1 -6.5 1.1 -13.9 -0.1z"/>
  <path d="M633 412.3 c-14 -5.8 -25.6 -10.6 -25.8 -10.8 -0.2 -0.1 1 -2.5 2.7 -5.1 1.6 -2.7 4.1 -8.5 5.6 -12.9 7.6 -23.3 1.8 -47.3 -15.4 -64.5 -31.1 -31 -82.8 -22.6 -101.5 16.3 -2.4 5.1 -4.7 10.8 -5.1 12.7 -1.3 6.2 -1.1 6.2 -15.5 0.2 -7.4 -3.2 -16.3 -6.8 -19.8 -8.2 -3.4 -1.4 -6 -2.9 -5.8 -3.5 0.2 -0.5 7.9 -18.5 17 -39.8 9.1 -21.4 16.6 -39 16.6 -39.2 0 -0.2 -3.9 1.3 -8.7 3.3 -8.3 3.5 -9.4 3.7 -19.8 3.7 -10 0 -11.5 -0.2 -16.7 -2.8 -20.4 -10 -30.1 -34 -21.2 -52.4 3.1 -6.4 11.9 -14.7 19.4 -18.2 4.9 -2.3 6.8 -2.6 16.5 -2.6 10.2 0 11.5 0.2 17.5 3.1 6.6 3.1 13.4 9.1 17.6 15.4 1.3 1.9 3.4 7.5 4.7 12.4 l2.3 8.8 5.6 -13.3 c3.1 -7.4 10 -24.2 15.3 -37.4 17.9 -44 18.3 -45 19.7 -44.7 2.3 0.5 203.3 83.4 204.1 84.2 0.5 0.4 -5 14.9 -12.1 32.1 -18 43.5 -47.5 114.9 -58.8 142.4 -5.2 12.7 -10.3 24.9 -11.2 27.1 l-1.8 4.2 -25.4 -10.5z"/>
 </g>
</svg>